<svg width="33" height="33" viewBox="0 0 33 33" fill="none" xmlns="http://www.w3.org/2000/svg">
<path opacity="0.2" d="M26.8125 11.3438H19.5938V4.125L26.8125 11.3438Z" fill="black"/>
<path d="M28.875 19.5938C28.875 19.8673 28.7664 20.1296 28.573 20.323C28.3796 20.5164 28.1173 20.625 27.8438 20.625H24.75V22.6875H26.8125C27.086 22.6875 27.3483 22.7961 27.5417 22.9895C27.7351 23.1829 27.8438 23.4452 27.8438 23.7188C27.8438 23.9923 27.7351 24.2546 27.5417 24.448C27.3483 24.6414 27.086 24.75 26.8125 24.75H24.75V26.8125C24.75 27.086 24.6414 27.3483 24.448 27.5417C24.2546 27.7351 23.9923 27.8438 23.7188 27.8438C23.4452 27.8438 23.1829 27.7351 22.9895 27.5417C22.7961 27.3483 22.6875 27.086 22.6875 26.8125V19.5938C22.6875 19.3202 22.7961 19.0579 22.9895 18.8645C23.1829 18.6711 23.4452 18.5625 23.7188 18.5625H27.8438C28.1173 18.5625 28.3796 18.6711 28.573 18.8645C28.7664 19.0579 28.875 19.3202 28.875 19.5938ZM11.8594 22.1719C11.8594 23.1291 11.4791 24.0472 10.8022 24.7241C10.1253 25.401 9.20727 25.7812 8.25 25.7812H7.21875V26.8125C7.21875 27.086 7.1101 27.3483 6.9167 27.5417C6.72331 27.7351 6.461 27.8438 6.1875 27.8438C5.914 27.8438 5.65169 27.7351 5.4583 27.5417C5.2649 27.3483 5.15625 27.086 5.15625 26.8125V19.5938C5.15625 19.3202 5.2649 19.0579 5.4583 18.8645C5.65169 18.6711 5.914 18.5625 6.1875 18.5625H8.25C9.20727 18.5625 10.1253 18.9428 10.8022 19.6197C11.4791 20.2965 11.8594 21.2146 11.8594 22.1719ZM9.79688 22.1719C9.79688 21.7616 9.6339 21.3682 9.34381 21.0781C9.05371 20.788 8.66026 20.625 8.25 20.625H7.21875V23.7188H8.25C8.66026 23.7188 9.05371 23.5558 9.34381 23.2657C9.6339 22.9756 9.79688 22.5821 9.79688 22.1719ZM21.1406 23.2031C21.1406 24.4339 20.6517 25.6143 19.7814 26.4845C18.9111 27.3548 17.7308 27.8438 16.5 27.8438H14.4375C14.164 27.8438 13.9017 27.7351 13.7083 27.5417C13.5149 27.3483 13.4062 27.086 13.4062 26.8125V19.5938C13.4062 19.3202 13.5149 19.0579 13.7083 18.8645C13.9017 18.6711 14.164 18.5625 14.4375 18.5625H16.5C17.7308 18.5625 18.9111 19.0514 19.7814 19.9217C20.6517 20.792 21.1406 21.9724 21.1406 23.2031ZM19.0781 23.2031C19.0781 22.5194 18.8065 21.8636 18.323 21.3801C17.8395 20.8966 17.1838 20.625 16.5 20.625H15.4688V25.7812H16.5C17.1838 25.7812 17.8395 25.5096 18.323 25.0261C18.8065 24.5426 19.0781 23.8869 19.0781 23.2031ZM5.15625 14.4375V5.15625C5.15625 4.60924 5.37355 4.08464 5.76034 3.69784C6.14714 3.31105 6.67174 3.09375 7.21875 3.09375H19.5938C19.7292 3.09364 19.8634 3.12023 19.9886 3.17198C20.1138 3.22374 20.2275 3.29966 20.3234 3.39539L27.5421 10.6141C27.6378 10.71 27.7138 10.8237 27.7655 10.9489C27.8173 11.0741 27.8439 11.2083 27.8438 11.3438V14.4375C27.8438 14.711 27.7351 14.9733 27.5417 15.1667C27.3483 15.3601 27.086 15.4688 26.8125 15.4688C26.539 15.4688 26.2767 15.3601 26.0833 15.1667C25.8899 14.9733 25.7812 14.711 25.7812 14.4375V12.375H19.5938C19.3202 12.375 19.0579 12.2664 18.8645 12.073C18.6711 11.8796 18.5625 11.6173 18.5625 11.3438V5.15625H7.21875V14.4375C7.21875 14.711 7.1101 14.9733 6.9167 15.1667C6.72331 15.3601 6.461 15.4688 6.1875 15.4688C5.914 15.4688 5.65169 15.3601 5.4583 15.1667C5.2649 14.9733 5.15625 14.711 5.15625 14.4375ZM20.625 10.3125H24.3233L20.625 6.61418V10.3125Z" fill="black"/>
</svg>
