<svg width="33" height="33" viewBox="0 0 33 33" fill="none" xmlns="http://www.w3.org/2000/svg">
<path d="M21.1973 13.579L15.0098 9.45398C14.8545 9.35034 14.6739 9.29082 14.4874 9.28179C14.3009 9.27275 14.1154 9.31453 13.9508 9.40267C13.7861 9.49081 13.6485 9.622 13.5526 9.78224C13.4567 9.94248 13.4061 10.1258 13.4062 10.3125V18.5625C13.4061 18.7492 13.4567 18.9325 13.5526 19.0928C13.6485 19.253 13.7861 19.3842 13.9508 19.4723C14.1154 19.5605 14.3009 19.6022 14.4874 19.5932C14.6739 19.5842 14.8545 19.5247 15.0098 19.421L21.1973 15.296C21.3388 15.2019 21.4548 15.0742 21.535 14.9245C21.6153 14.7747 21.6573 14.6074 21.6573 14.4375C21.6573 14.2676 21.6153 14.1003 21.535 13.9505C21.4548 13.8008 21.3388 13.6731 21.1973 13.579ZM15.4688 16.6354V12.2461L18.7662 14.4375L15.4688 16.6354ZM27.8438 5.15625H5.15625C4.60924 5.15625 4.08464 5.37355 3.69784 5.76034C3.31105 6.14714 3.09375 6.67174 3.09375 7.21875V21.6562C3.09375 22.2033 3.31105 22.7279 3.69784 23.1147C4.08464 23.5015 4.60924 23.7188 5.15625 23.7188H27.8438C28.3908 23.7188 28.9154 23.5015 29.3022 23.1147C29.689 22.7279 29.9062 22.2033 29.9062 21.6562V7.21875C29.9062 6.67174 29.689 6.14714 29.3022 5.76034C28.9154 5.37355 28.3908 5.15625 27.8438 5.15625ZM27.8438 21.6562H5.15625V7.21875H27.8438V21.6562ZM29.9062 26.8125C29.9062 27.086 29.7976 27.3483 29.6042 27.5417C29.4108 27.7351 29.1485 27.8438 28.875 27.8438H4.125C3.8515 27.8438 3.58919 27.7351 3.3958 27.5417C3.2024 27.3483 3.09375 27.086 3.09375 26.8125C3.09375 26.539 3.2024 26.2767 3.3958 26.0833C3.58919 25.8899 3.8515 25.7812 4.125 25.7812H28.875C29.1485 25.7812 29.4108 25.8899 29.6042 26.0833C29.7976 26.2767 29.9062 26.539 29.9062 26.8125Z" fill="black"/>
</svg>
