<svg width="33" height="33" viewBox="0 0 33 33" fill="none" xmlns="http://www.w3.org/2000/svg">
<path d="M16.5 23.3748L14.4375 25.4373C13.5257 26.3488 12.2893 26.8609 11 26.8609C9.71075 26.8609 8.47427 26.3488 7.56251 25.4373C6.65098 24.5255 6.13892 23.289 6.13892 21.9998C6.13892 20.7105 6.65098 19.474 7.56251 18.5623L11.6875 14.4373C12.5993 13.5257 13.8357 13.0137 15.125 13.0137C16.4143 13.0137 17.6507 13.5257 18.5625 14.4373" stroke="black" stroke-width="3" stroke-linecap="round"/>
<path d="M16.5 9.62477L18.5625 7.56227C19.4743 6.65074 20.7107 6.13867 22 6.13867C23.2893 6.13867 24.5257 6.65074 25.4375 7.56227C26.349 8.47403 26.8611 9.7105 26.8611 10.9998C26.8611 12.289 26.349 13.5255 25.4375 14.4373L21.3125 18.5623C20.4007 19.4738 19.1643 19.9859 17.875 19.9859C16.5857 19.9859 15.3493 19.4738 14.4375 18.5623" stroke="black" stroke-width="3" stroke-linecap="round"/>
</svg>
